<?xml version="1.0" encoding="utf-8"?>
<!-- Generator: Adobe Illustrator 19.0.0, SVG Export Plug-In . SVG Version: 6.00 Build 0)  -->
<svg version="1.1" id="Layer_1" xmlns="http://www.w3.org/2000/svg" xmlns:xlink="http://www.w3.org/1999/xlink" x="0px" y="0px"
	 viewBox="0 0 2722.2 2888" style="enable-background:new 0 0 2722.2 2888;" xml:space="preserve">
<style type="text/css">
	.st0{fill:#FFFFFF;stroke:#A5A5A5;stroke-width:52;stroke-miterlimit:10;}
	.st1{fill:#FFFFFF;}
	.st2{fill:#CC4400;}
	.st3{fill-rule:evenodd;clip-rule:evenodd;fill:#FEFEFE;}
	.st4{fill:#CC4400;stroke:#FFFFFF;stroke-width:52;stroke-miterlimit:10;}
	.st5{font-family:'MicrosoftSansSerif';}
	.st6{font-size:459.507px;}
</style>
<circle class="st0" cx="1366.7" cy="1535.1" r="1290.4"/>
<path d="M1620.3,362.5c153.2,65,142.9,351.9-64.3,345.5c-10.3,50.6-5.9,106.7,4.4,154.8c-221.7-24.7-486.5,48.8-681.8,189.3
	c-7-64.5-27.1-136.6-69.6-177.4C633.7,908.3,544.6,620.2,691,492.3c-65.3-358.2,404-575.9,570.9-381.2
	c185.2-72.8,334.5,45.2,358.5,251.5L1620.3,362.5z"/>
<path class="st1" d="M891.1,433.3c-47.8-1.8-88.4,4-122.7,15.5c-45.5-214.6,233.4-368.9,386.3-330c128.5,32.7,151.3,165,28.9,255.5
	c105-27.9,141.1-127.8,109.4-211.1c103.2-49.1,256,31.8,282.5,188.1c-48.3-5.3-89,10.3-89,10.3c56.5-1.1,151.4,40,173.5,110.5
	c23.3,74.2-18.7,159.9-126.4,166.9c-33.8-12.8-73.3-20.6-116.5-18.1c-95.8,5.4-92.3-86.9-3.3-108.1
	c-113.6-30.4-131.9,110.8-229.4,131.7c-62.7,13.5-159.7,13.5-182.2-145c-20.9,37.6-16.7,84.4-4.2,117.1
	c6.5,16.9,38.6,63.5-10.3,91.9c-49.2,28.6-77.6,56.3-110.7,78.8c-199.2,135.3-351-282,14-353.7L891.1,433.3z M943,948
	c157.5-93.2,328.8-155.3,521.2-137.6c16,1.5,25.6,2.3,31.5,0.9c-61.7-24.1-139.7-35.1-200.1-34.7c82.4-25.4,136.5-17.9,210-1.9
	c0.1-3.5,0.3-7.5,0.6-11.7c3.6-58.4,21.2-71.5-37.7-89.3c-185-55.9-468.1,42.1-593.8,190.4c55.8-41.4,136.4-90.2,237.2-121.6
	c0,0-124.7,67.7-222.9,158.2c55-39.2,130.9-83,224-112.2c0,0-109.3,59.3-203.9,141.4c54.6-38.3,111.2-70.5,201.5-98.7
	C1110.5,831.2,1023.6,882.6,943,948z"/>
<path class="st2" d="M891.1,433.3c-47.8-1.8-88.4,4-122.7,15.5c-45.5-214.6,233.4-368.9,386.3-330c8.9,2.3,17.4,5.1,25.2,8.2
	C916,114.8,818.4,287.9,829.5,402.3C863.3,411.8,891.1,433.3,891.1,433.3z M1271.9,318.2c34.1-43.4,41-102.6,21.1-155.1
	c102.9-49,255.3,31.4,282.3,186.9c-2-10.4-19.8-89.7-99-130.2c-53.1-27.1-112.2-25.7-149-20.8c-0.5,9.5-2,20.3-5,32.5
	c-10.2,42.3-31.3,69.8-50.2,86.7L1271.9,318.2z M1492.5,359.4L1492.5,359.4L1492.5,359.4L1492.5,359.4z M1497,361.7
	c57,3.8,142.2,43.9,163,110.2c23.3,74.2-18.7,159.9-126.4,166.9c-33.8-12.8-73.3-20.6-116.5-18.1c-68.4,3.9-86.2-42-58.4-76.5
	c1,12.2,7.3,26,26.6,36.4c44.4,24.2,41.9-0.7,117.8,17.4c75.9,18.1,115.5-33.9,111.9-107.6C1611.8,425.3,1518.7,373,1497,361.7z
	 M1002.2,499.2c-20.9,37.6-16.7,84.4-4.2,117.1c6.5,16.9,38.6,63.5-10.3,91.9c-49.2,28.6-77.6,56.3-110.7,78.8
	C717.6,895.2,588.6,649.7,730.5,510.5c-24.2,47.3-48.7,125.6-6.4,206.1c67.5,128.6,248.7-47.1,248.7-47.1s-32.4-97.9,29.4-170.4
	L1002.2,499.2z M1461,671.7c3.7,4.9,6.8,10.5,7.7,16.7c3,18.3,2.9,37.4-3.1,51.8c-3.3,7.8-31.7,15.2-56.5,20.3
	c31.2,1.2,61.5,6.8,96.3,14.4c0.1-3.5,0.3-7.5,0.6-11.7c3.6-58.4,21.2-71.5-37.7-89.3c-2.4-0.8-4.8-1.4-7.2-2.1L1461,671.7z
	 M1299.2,776.7c1.8,0.1,30.2,1.2,33.8,11.9c3.6,11-173.8,5.9-390.2,159.5c157.5-93.2,328.8-155.3,521.2-137.6
	c16,1.5,25.6,2.3,31.5,0.9C1435.1,787.9,1359.1,776.9,1299.2,776.7z"/>
<circle cx="1347.7" cy="1563.6" r="604.1"/>
<path class="st3" d="M523.4,2197.5c-84.3,3.4-168.2-8.5-249.3-31.8c-89.3-25.1-171.6-67.4-246.9-121.2L0,2025l160.9-270.1l31.7,21.5
	c53.4,35.8,111.5,66,172.4,85.7c49.4,15.9,101.8,26.3,154.2,24.2c22.2-0.9,58.3-4.5,76.7-18.8c10-8,15.1-16.3,14.5-29.3l-0.2-4.3
	c-0.3-7-3.2-11.8-8.2-16.5c-10.7-9.9-25-16.9-38.8-21.7c-22.6-8.9-46.1-15.5-69.1-21.6c-29-7.5-58-15-85.9-22.6
	c-40.5-9.8-80.5-22.3-120-36.4c-41.7-14.6-81-35.2-116.2-61.4c-36.8-27.2-66.3-61.3-89.5-100.4c-26.7-45.5-38-97.6-40.1-150
	l-0.2-3.8c-2.3-56.8,5.8-112.9,28.7-164.7c21.4-48,51.1-89.8,90.4-124.3c39.2-35.7,85.3-61.9,134.9-79.5
	c53.4-18.4,108.8-32.1,165.6-30.4c160.1,4.8,237.6,34.3,391.5,93.8c-67.9-26.2-271.1,144-299.2,226.9c-28.4-6.5-57.8-10.7-86.5-9.6
	c-18.9,0.8-47,4-62.7,16.6c-8.4,6.8-13,13.5-12.5,24.9l0.2,3.8c0.2,5.4,3.1,9.6,7,12.7c11.8,10.4,27.3,18.4,41.1,24.9
	c22.1,10,44.6,17.7,67.1,25c28,8.6,55.9,17.3,84.4,24.8c41.1,11.4,81.1,24.9,120.7,40.1c41.2,15.7,80.5,36.3,116.2,62
	c36.2,26.2,66.2,58.6,90.5,96.6c27.2,43.3,38.9,93.8,40.9,144.6l0.2,4.3c2.3,58.9-4.5,119.3-28.3,174.4
	c-21.3,49.6-52.7,92-94.6,126.1c-42,34.2-90.3,58.8-142.1,75.5C639.9,2185.8,581.8,2195.2,523.4,2197.5L523.4,2197.5z"/>
<path d="M522,2160.7c-77.3,3.1-156.8-6.8-237.8-30.1c-81.6-23.3-160-61.9-235.3-115.7l123.9-208c61.2,40.9,121.4,71,181.2,90.3
	c59.8,19.3,115.4,27.9,166.7,25.9c44.3-1.8,77-10.6,97.5-26.1c20.5-16,30-35.8,29-60.2l-0.2-4.3c-0.6-16.2-7.2-30-20.1-42
	c-12.4-11.4-29.5-21-51-29.4c-20.9-7.8-45.6-15.5-72.9-22.6c-27.4-7-56.4-14.5-86.5-22.6c-38.3-9.3-76.7-21.3-116.2-35.5
	c-39-13.6-74.4-32.8-106.7-56.4c-31.8-23.6-58.4-53.5-79.9-89.4c-20.9-35.4-32.4-79.9-34.5-132.9l-0.2-3.8
	c-2.2-55.7,6.1-104.8,25.5-148.3c19.4-43.5,46.1-80.9,81.1-112.1c34.5-31.2,75.8-55,122.8-72c47.5-16.5,99.1-26.1,154.8-28.4
	c68.7-2.7,139.4,5.8,211.1,25.2c54.7,14.6,105.9,34.2,154,59.4c-11.5,10.7-23,21.5-34.4,33.3c-47.3,50.1-85.1,106.8-113.5,169.7
	c-25.9-10.9-51.7-20.1-76.9-27.8c-52.1-16.3-97.9-23.7-137.3-22.2c-37.8,1.5-65.7,9.7-84,24.5c-18.3,15.3-27.4,33.6-26.5,55.2
	l0.2,3.8c0.6,15.1,7.1,27.9,20,39.3c12.3,10.9,29,21,49.9,30.5c20.9,8.9,44.6,17.7,70.9,26.4c26.9,8.1,55.4,16.8,85.5,25.3
	c38.3,10.4,77.8,23.4,117.4,38.7c40.1,15.2,76.1,34.9,107.9,58c32.3,23.1,58.9,51.8,80.9,86.1c21.4,34.3,33.4,76.6,35.3,126.4
	l0.2,4.3c2.4,60.6-5.8,113.4-25.1,158.6c-19.3,44.6-47.1,82-83.8,111.6c-36.7,30.2-80.2,53-130.4,69.6
	C634.1,2149.2,579.8,2158.4,522,2160.7L522,2160.7z"/>
<path class="st3" d="M2234.1,2133.6c-84.3,3.4-168.2-8.5-249.3-31.8c-23-6.1-45-13.9-66.4-22.3l97.8-304.4
	c19.3,9,39.7,16.8,59.9,23.1c49.4,15.9,101.8,26.3,153.7,24.2c22.2-0.9,58.3-4.5,76.7-18.8c10-8,15.1-16.3,14.5-29.3l-0.2-4.3
	c-0.3-7-2.6-11.8-7.7-16.5c-11.2-9.8-25.6-16.9-39.3-21.7c-22.6-8.9-45.6-15.5-69.1-21.6c-29-7.5-58-15-85.9-22.6
	c-40.5-9.8-80.5-22.3-120-36.4c-41.7-14.6-80.5-35.2-116.2-61.4c-36.8-27.2-66.3-61.3-89.5-100.4c-26.7-45.5-38-97.6-40.1-150
	l-0.2-3.8c-2.3-56.8,5.8-112.9,29.2-164.7c20.8-47.9,51.1-89.8,89.8-124.3c39.2-35.7,85.3-61.9,135.5-79.6
	c52.9-18.3,108.8-28.2,165-30.4c75.1-3,149.7,7,222,26.4c73.9,19.8,143.8,49.5,209.3,88.6l28.8,17.3l-141,281.8l-33.2-17.6
	c-49.8-25.6-101.6-48.5-155.3-65.3c-38.9-12-83.2-21.6-124.8-19.9c-18.9,0.8-46.9,4-62.7,16.6c-8.4,6.8-13,13.5-12.5,24.9l0.2,3.8
	c0.2,5.4,3.1,9.6,7.5,12.7c11.8,10.4,26.7,18.4,40.5,24.9c22.1,10,44.6,17.7,67.6,24.9c27.4,8.7,55.9,17.3,83.8,24.8
	c41.1,11.4,81.1,24.9,120.7,40.1c41.2,15.7,80.5,36.3,116.2,62c36.2,26.2,66.2,58.6,90.5,96.6c27.2,43.3,38.9,93.8,40.9,144.6
	l0.2,4.3c2.3,58.9-4.5,119.3-28.3,174.4c-21.3,49.6-52.7,92-94.1,126.1c-42.5,34.2-90.8,58.8-142.7,75.5
	C2350.6,2121.9,2292.4,2131.2,2234.1,2133.6L2234.1,2133.6z"/>
<path d="M2232.6,2096.8c-77.3,3.1-156.2-6.8-237.8-30.1c-53.1-15.2-104.9-36.4-155.3-64.8c7.3-6.8,14.6-14.1,21.9-21.4
	c50.4-53.4,89.7-114,118.4-181.8c28.7,14,56.8,25.4,84.8,34.5c59.8,19.3,115.4,27.9,166.7,25.9c44.9-1.8,77-10.6,97.5-26.1
	c20.5-16,30-35.8,29-60.2l-0.2-4.3c-0.6-16.2-7.2-30-20.1-42c-12.4-11.4-29.5-21-51-29.4c-20.9-7.8-45.6-15.5-72.9-22.6
	c-27.4-7-55.8-14.6-85.9-22.6c-38.3-9.3-77.2-21.3-116.2-35.5c-39.5-13.6-74.9-32.8-107.3-56.4c-31.8-23.6-58.4-53.5-79.4-89.4
	c-21.4-35.4-33-79.9-35.1-132.9l-0.2-3.8c-2.2-55.7,6.7-104.8,25.5-148.3c19.4-43.5,46.6-80.9,81.1-112.1
	c34.5-31.2,75.8-55,123.3-72c47-16.5,98.6-26.1,154.3-28.3c68.7-2.7,139.4,5.8,211.1,25.2c72.2,19.3,138.3,47.6,199.4,84.7
	l-108.9,217.7c-55.3-29.2-109.3-52-161.4-67.8c-52.1-16.3-97.9-23.7-137.3-22.2c-37.8,1.5-65.7,9.7-84,24.5
	c-18.3,15.3-27.4,33.6-26.5,55.2l0.2,3.8c0.6,15.1,7.6,27.9,20,39.3c12.9,10.9,29.5,21,49.9,30.5c20.9,8.9,44.6,17.7,71.4,26.4
	c26.3,8.2,54.8,16.8,84.9,25.3c38.3,10.4,77.8,23.4,117.4,38.7c40.1,15.2,76.1,34.9,107.9,58c32.3,23.1,59.5,51.8,80.9,86.1
	c21.9,34.3,33.4,76.6,35.3,126.4l0.2,4.3c2.4,60.6-5.8,113.4-25.1,158.6c-19.3,44.6-47.1,82-83.8,111.6
	c-36.7,30.2-80.2,53-130.4,69.6C2344.8,2085.3,2291,2094.5,2232.6,2096.8L2232.6,2096.8z"/>
<circle class="st4" cx="1347.7" cy="1563.6" r="418.3"/>
<text transform="matrix(0.9994 -3.532659e-002 3.532659e-002 0.9994 595.3436 2590.4827)" class="st5 st6">SAUCE</text>
</svg>
